<?xml version="1.0" encoding="UTF-8" standalone="no"?>
<!DOCTYPE svg PUBLIC "-//W3C//DTD SVG 1.1//EN"
 "http://www.w3.org/Graphics/SVG/1.1/DTD/svg11.dtd">
<!-- Generated by graphviz version 14.1.5 (0)
 -->
<!-- Title: Menu::LoadScrollPaneMenuTypeConfiguration Pages: 1 -->
<svg width="579pt" height="518pt"
 viewBox="0.00 0.00 579.00 518.00" xmlns="http://www.w3.org/2000/svg" xmlns:xlink="http://www.w3.org/1999/xlink">
<g id="graph0" class="graph" transform="scale(1 1) rotate(0) translate(4 513.5)">
<title>Menu::LoadScrollPaneMenuTypeConfiguration</title>
<!-- Node1 -->
<g id="Node000001" class="node">
<title>Node1</title>
<g id="a_Node000001"><a xlink:title="Load the menu if it is a scroll pane menu.">
<polygon fill="#999999" stroke="#666666" points="150.25,-189.5 0,-189.5 0,-156 150.25,-156 150.25,-189.5"/>
<text xml:space="preserve" text-anchor="start" x="8" y="-176" font-family="Helvetica,sans-Serif" font-size="10.00">Menu::LoadScrollPaneMenu</text>
<text xml:space="preserve" text-anchor="middle" x="75.12" y="-163.25" font-family="Helvetica,sans-Serif" font-size="10.00">TypeConfiguration</text>
</a>
</g>
</g>
<!-- Node2 -->
<g id="Node000002" class="node">
<title>Node2</title>
<g id="a_Node000002"><a xlink:href="classMenu.html#adde221c0ab8ba661d1ee34b5d2270d8d" target="_top" xlink:title="Create the Texture for the Directories and Files.">
<polygon fill="white" stroke="#666666" points="354.88,-367.12 191.88,-367.12 191.88,-346.38 354.88,-346.38 354.88,-367.12"/>
<text xml:space="preserve" text-anchor="middle" x="273.38" y="-353.62" font-family="Helvetica,sans-Serif" font-size="10.00">Menu::CreateButtonsAndTexts</text>
</a>
</g>
</g>
<!-- Node1&#45;&gt;Node2 -->
<g id="edge1_Node000001_Node000002" class="edge">
<title>Node1&#45;&gt;Node2</title>
<g id="a_edge1_Node000001_Node000002"><a xlink:title=" ">
<path fill="none" stroke="#63b8ff" d="M87.04,-189.63C105.19,-216.76 143.8,-270.67 186.25,-306.75 202.18,-320.29 222.27,-332.19 239.04,-340.98"/>
<polygon fill="#63b8ff" stroke="#63b8ff" points="237.14,-343.94 247.64,-345.36 240.31,-337.7 237.14,-343.94"/>
</a>
</g>
</g>
<!-- Node9 -->
<g id="Node000009" class="node">
<title>Node9</title>
<g id="a_Node000009"><a xlink:href="classMenu.html#a650540b684e46ae0115be6d47f4c33ee" target="_top" xlink:title="Create the sbudirectory system of the given directory.">
<polygon fill="white" stroke="#666666" points="349.62,-280.12 197.12,-280.12 197.12,-259.38 349.62,-259.38 349.62,-280.12"/>
<text xml:space="preserve" text-anchor="middle" x="273.38" y="-266.62" font-family="Helvetica,sans-Serif" font-size="10.00">Menu::CreateSubDirectories</text>
</a>
</g>
</g>
<!-- Node1&#45;&gt;Node9 -->
<g id="edge9_Node000001_Node000009" class="edge">
<title>Node1&#45;&gt;Node9</title>
<g id="a_edge9_Node000001_Node000009"><a xlink:title=" ">
<path fill="none" stroke="#63b8ff" d="M94.96,-189.71C115.8,-207.56 151.11,-235.2 186.25,-250.75 190.23,-252.51 194.39,-254.12 198.64,-255.58"/>
<polygon fill="#63b8ff" stroke="#63b8ff" points="197.3,-258.83 207.89,-258.47 199.39,-252.15 197.3,-258.83"/>
</a>
</g>
</g>
<!-- Node11 -->
<g id="Node000011" class="node">
<title>Node11</title>
<g id="a_Node000011"><a xlink:href="namespaceJSONParser_1_1menu__configuration.html#aaa1e33fa4ae8d2f0d4060843bb871d32" target="_top" xlink:title="Return the path to the background image.">
<polygon fill="white" stroke="#666666" points="360.5,-241.5 186.25,-241.5 186.25,-208 360.5,-208 360.5,-241.5"/>
<text xml:space="preserve" text-anchor="start" x="194.25" y="-228" font-family="Helvetica,sans-Serif" font-size="10.00">JSONParser::menu_configuration</text>
<text xml:space="preserve" text-anchor="middle" x="273.38" y="-215.25" font-family="Helvetica,sans-Serif" font-size="10.00">::GetBackgroundImagePath</text>
</a>
</g>
</g>
<!-- Node1&#45;&gt;Node11 -->
<g id="edge12_Node000001_Node000011" class="edge">
<title>Node1&#45;&gt;Node11</title>
<g id="a_edge12_Node000001_Node000011"><a xlink:title=" ">
<path fill="none" stroke="#63b8ff" d="M141.2,-189.99C158.93,-194.69 178.29,-199.82 196.57,-204.66"/>
<polygon fill="#63b8ff" stroke="#63b8ff" points="195.45,-207.99 206.01,-207.17 197.24,-201.22 195.45,-207.99"/>
</a>
</g>
</g>
<!-- Node12 -->
<g id="Node000012" class="node">
<title>Node12</title>
<g id="a_Node000012"><a xlink:href="namespaceJSONParser_1_1menu__configuration.html#af6fd55eba707558376e878b364a5c485" target="_top" xlink:title="Return the command to execute.">
<polygon fill="white" stroke="#666666" points="360.5,-189.5 186.25,-189.5 186.25,-156 360.5,-156 360.5,-189.5"/>
<text xml:space="preserve" text-anchor="start" x="194.25" y="-176" font-family="Helvetica,sans-Serif" font-size="10.00">JSONParser::menu_configuration</text>
<text xml:space="preserve" text-anchor="middle" x="273.38" y="-163.25" font-family="Helvetica,sans-Serif" font-size="10.00">::GetCmd</text>
</a>
</g>
</g>
<!-- Node1&#45;&gt;Node12 -->
<g id="edge13_Node000001_Node000012" class="edge">
<title>Node1&#45;&gt;Node12</title>
<g id="a_edge13_Node000001_Node000012"><a xlink:title=" ">
<path fill="none" stroke="#63b8ff" d="M150.6,-172.75C158.41,-172.75 166.44,-172.75 174.46,-172.75"/>
<polygon fill="#63b8ff" stroke="#63b8ff" points="174.26,-176.25 184.26,-172.75 174.26,-169.25 174.26,-176.25"/>
</a>
</g>
</g>
<!-- Node13 -->
<g id="Node000013" class="node">
<title>Node13</title>
<g id="a_Node000013"><a xlink:href="namespaceJSONParser_1_1graphics.html#a426767a2c7d0ef5411317b044043f723" target="_top" xlink:title="Function to get the height of the screen.">
<polygon fill="white" stroke="#666666" points="332.38,-137.5 214.38,-137.5 214.38,-104 332.38,-104 332.38,-137.5"/>
<text xml:space="preserve" text-anchor="start" x="222.38" y="-124" font-family="Helvetica,sans-Serif" font-size="10.00">JSONParser::graphics</text>
<text xml:space="preserve" text-anchor="middle" x="273.38" y="-111.25" font-family="Helvetica,sans-Serif" font-size="10.00">::GetHeight</text>
</a>
</g>
</g>
<!-- Node1&#45;&gt;Node13 -->
<g id="edge14_Node000001_Node000013" class="edge">
<title>Node1&#45;&gt;Node13</title>
<g id="a_edge14_Node000001_Node000013"><a xlink:title=" ">
<path fill="none" stroke="#63b8ff" d="M141.2,-155.51C161.06,-150.24 182.97,-144.44 203.11,-139.1"/>
<polygon fill="#63b8ff" stroke="#63b8ff" points="203.85,-142.53 212.62,-136.58 202.06,-135.76 203.85,-142.53"/>
</a>
</g>
</g>
<!-- Node15 -->
<g id="Node000015" class="node">
<title>Node15</title>
<g id="a_Node000015"><a xlink:href="namespaceJSONParser_1_1graphics.html#a127c3fac1f8f2c0396b567279bcd8f57" target="_top" xlink:title="Return the scale for the current resolution.">
<polygon fill="white" stroke="#666666" points="332.38,-85.5 214.38,-85.5 214.38,-52 332.38,-52 332.38,-85.5"/>
<text xml:space="preserve" text-anchor="start" x="222.38" y="-72" font-family="Helvetica,sans-Serif" font-size="10.00">JSONParser::graphics</text>
<text xml:space="preserve" text-anchor="middle" x="273.38" y="-59.25" font-family="Helvetica,sans-Serif" font-size="10.00">::GetScale</text>
</a>
</g>
</g>
<!-- Node1&#45;&gt;Node15 -->
<g id="edge16_Node000001_Node000015" class="edge">
<title>Node1&#45;&gt;Node15</title>
<g id="a_edge16_Node000001_Node000015"><a xlink:title=" ">
<path fill="none" stroke="#63b8ff" d="M95.97,-155.67C117.11,-138.23 152.15,-111.42 186.25,-94.75 191.69,-92.09 197.45,-89.64 203.32,-87.4"/>
<polygon fill="#63b8ff" stroke="#63b8ff" points="204.29,-90.77 212.52,-84.1 201.93,-84.18 204.29,-90.77"/>
</a>
</g>
</g>
<!-- Node16 -->
<g id="Node000016" class="node">
<title>Node16</title>
<g id="a_Node000016"><a xlink:href="namespaceJSONParser_1_1graphics.html#a99e24a77c8d8c99343f4d47e85feff05" target="_top" xlink:title="Function to get the width of the screen.">
<polygon fill="white" stroke="#666666" points="332.38,-33.5 214.38,-33.5 214.38,0 332.38,0 332.38,-33.5"/>
<text xml:space="preserve" text-anchor="start" x="222.38" y="-20" font-family="Helvetica,sans-Serif" font-size="10.00">JSONParser::graphics</text>
<text xml:space="preserve" text-anchor="middle" x="273.38" y="-7.25" font-family="Helvetica,sans-Serif" font-size="10.00">::GetWidth</text>
</a>
</g>
</g>
<!-- Node1&#45;&gt;Node16 -->
<g id="edge18_Node000001_Node000016" class="edge">
<title>Node1&#45;&gt;Node16</title>
<g id="a_edge18_Node000001_Node000016"><a xlink:title=" ">
<path fill="none" stroke="#63b8ff" d="M86.01,-155.67C102.96,-127.88 140.25,-72.93 186.25,-42.75 191.69,-39.18 197.64,-36.09 203.78,-33.41"/>
<polygon fill="#63b8ff" stroke="#63b8ff" points="204.84,-36.75 212.86,-29.83 202.27,-30.24 204.84,-36.75"/>
</a>
</g>
</g>
<!-- Node2&#45;&gt;Node2 -->
<g id="edge2_Node000002_Node000002" class="edge">
<title>Node2&#45;&gt;Node2</title>
<g id="a_edge2_Node000002_Node000002"><a xlink:title=" ">
<path fill="none" stroke="#63b8ff" d="M241.43,-367.52C228.65,-376.18 239.3,-385.12 273.38,-385.12 292.01,-385.12 303.64,-382.45 308.26,-378.61"/>
<polygon fill="#63b8ff" stroke="#63b8ff" points="311.65,-377.75 305.71,-368.99 304.89,-379.55 311.65,-377.75"/>
</a>
</g>
</g>
<!-- Node3 -->
<g id="Node000003" class="node">
<title>Node3</title>
<g id="a_Node000003"><a xlink:href="namespaceJSONParser_1_1menu__configuration.html#aa692faa2d71682a0740608c65e7e0bfb" target="_top" xlink:title="Get the Texture size for the directory row.">
<polygon fill="white" stroke="#666666" points="570.75,-509.5 396.5,-509.5 396.5,-476 570.75,-476 570.75,-509.5"/>
<text xml:space="preserve" text-anchor="start" x="404.5" y="-496" font-family="Helvetica,sans-Serif" font-size="10.00">JSONParser::menu_configuration</text>
<text xml:space="preserve" text-anchor="middle" x="483.62" y="-483.25" font-family="Helvetica,sans-Serif" font-size="10.00">::GetDirectoryTextureSize</text>
</a>
</g>
</g>
<!-- Node2&#45;&gt;Node3 -->
<g id="edge3_Node000002_Node000003" class="edge">
<title>Node2&#45;&gt;Node3</title>
<g id="a_edge3_Node000002_Node000003"><a xlink:title=" ">
<path fill="none" stroke="#63b8ff" d="M283.33,-367.52C302.07,-389.4 347.78,-439.29 396.5,-466.75 399.15,-468.24 401.9,-469.66 404.71,-471"/>
<polygon fill="#63b8ff" stroke="#63b8ff" points="403.17,-474.15 413.74,-474.95 405.97,-467.74 403.17,-474.15"/>
</a>
</g>
</g>
<!-- Node4 -->
<g id="Node000004" class="node">
<title>Node4</title>
<g id="a_Node000004"><a xlink:href="namespaceJSONParser_1_1menu__configuration.html#ae51e66d83978170453d603da214fd4fe" target="_top" xlink:title="Get the Texture size for the file row.">
<polygon fill="white" stroke="#666666" points="570.75,-457.5 396.5,-457.5 396.5,-424 570.75,-424 570.75,-457.5"/>
<text xml:space="preserve" text-anchor="start" x="404.5" y="-444" font-family="Helvetica,sans-Serif" font-size="10.00">JSONParser::menu_configuration</text>
<text xml:space="preserve" text-anchor="middle" x="483.62" y="-431.25" font-family="Helvetica,sans-Serif" font-size="10.00">::GetFileTextureSize</text>
</a>
</g>
</g>
<!-- Node2&#45;&gt;Node4 -->
<g id="edge4_Node000002_Node000004" class="edge">
<title>Node2&#45;&gt;Node4</title>
<g id="a_edge4_Node000002_Node000004"><a xlink:title=" ">
<path fill="none" stroke="#63b8ff" d="M294.7,-367.57C318.61,-380.01 359.71,-400.55 396.5,-414.75 401.13,-416.54 405.94,-418.28 410.82,-419.97"/>
<polygon fill="#63b8ff" stroke="#63b8ff" points="409.51,-423.22 420.1,-423.07 411.73,-416.58 409.51,-423.22"/>
</a>
</g>
</g>
<!-- Node5 -->
<g id="Node000005" class="node">
<title>Node5</title>
<g id="a_Node000005"><a xlink:href="classMenu.html#a76986784f4382a866f37a767d772cca8" target="_top" xlink:title="Return the name of the special character.">
<polygon fill="white" stroke="#666666" points="565.88,-406.12 401.38,-406.12 401.38,-385.38 565.88,-385.38 565.88,-406.12"/>
<text xml:space="preserve" text-anchor="middle" x="483.62" y="-392.62" font-family="Helvetica,sans-Serif" font-size="10.00">Menu::GetNameOfSpecialChar</text>
</a>
</g>
</g>
<!-- Node2&#45;&gt;Node5 -->
<g id="edge5_Node000002_Node000005" class="edge">
<title>Node2&#45;&gt;Node5</title>
<g id="a_edge5_Node000002_Node000005"><a xlink:title=" ">
<path fill="none" stroke="#63b8ff" d="M332.38,-367.61C357.55,-372.33 387.23,-377.88 413.52,-382.81"/>
<polygon fill="#63b8ff" stroke="#63b8ff" points="412.6,-386.2 423.08,-384.6 413.89,-379.32 412.6,-386.2"/>
</a>
</g>
</g>
<!-- Node6 -->
<g id="Node000006" class="node">
<title>Node6</title>
<g id="a_Node000006"><a xlink:href="classMenu.html#a35c051d11a6e82ba9cff0215aac903ed" target="_top" xlink:title="Check if a given cahr is special (in this list).">
<polygon fill="white" stroke="#666666" points="529.5,-367.12 437.75,-367.12 437.75,-346.38 529.5,-346.38 529.5,-367.12"/>
<text xml:space="preserve" text-anchor="middle" x="483.62" y="-353.62" font-family="Helvetica,sans-Serif" font-size="10.00">Menu::isspecial</text>
</a>
</g>
</g>
<!-- Node2&#45;&gt;Node6 -->
<g id="edge6_Node000002_Node000006" class="edge">
<title>Node2&#45;&gt;Node6</title>
<g id="a_edge6_Node000002_Node000006"><a xlink:title=" ">
<path fill="none" stroke="#63b8ff" d="M355.19,-356.75C378.83,-356.75 404.17,-356.75 425.98,-356.75"/>
<polygon fill="#63b8ff" stroke="#63b8ff" points="425.85,-360.25 435.85,-356.75 425.85,-353.25 425.85,-360.25"/>
</a>
</g>
</g>
<!-- Node7 -->
<g id="Node000007" class="node">
<title>Node7</title>
<g id="a_Node000007"><a xlink:href="classText.html#aa8bbb1eb82dcf077ced15ca149a28c96" target="_top" xlink:title="Set the SDL_FRects of the Text.">
<polygon fill="white" stroke="#666666" points="526.12,-328.12 441.12,-328.12 441.12,-307.38 526.12,-307.38 526.12,-328.12"/>
<text xml:space="preserve" text-anchor="middle" x="483.62" y="-314.62" font-family="Helvetica,sans-Serif" font-size="10.00">Text::SetRects</text>
</a>
</g>
</g>
<!-- Node2&#45;&gt;Node7 -->
<g id="edge7_Node000002_Node000007" class="edge">
<title>Node2&#45;&gt;Node7</title>
<g id="a_edge7_Node000002_Node000007"><a xlink:title=" ">
<path fill="none" stroke="#63b8ff" d="M332.38,-345.89C362.91,-340.17 400.05,-333.21 429.77,-327.65"/>
<polygon fill="#63b8ff" stroke="#63b8ff" points="430.1,-331.15 439.28,-325.87 428.81,-324.27 430.1,-331.15"/>
</a>
</g>
</g>
<!-- Node8 -->
<g id="Node000008" class="node">
<title>Node8</title>
<g id="a_Node000008"><a xlink:href="classText.html#a3a59a1dbc6d01a2df0c9deea701c7f36" target="_top" xlink:title="Set the Texture of the Text.">
<polygon fill="white" stroke="#666666" points="533.25,-289.12 434,-289.12 434,-268.38 533.25,-268.38 533.25,-289.12"/>
<text xml:space="preserve" text-anchor="middle" x="483.62" y="-275.62" font-family="Helvetica,sans-Serif" font-size="10.00">Text::SetTextures</text>
</a>
</g>
</g>
<!-- Node2&#45;&gt;Node8 -->
<g id="edge8_Node000002_Node000008" class="edge">
<title>Node2&#45;&gt;Node8</title>
<g id="a_edge8_Node000002_Node000008"><a xlink:title=" ">
<path fill="none" stroke="#63b8ff" d="M293.71,-345.96C317.33,-333.16 358.83,-311.9 396.5,-298.75 404.86,-295.83 413.82,-293.22 422.69,-290.91"/>
<polygon fill="#63b8ff" stroke="#63b8ff" points="423.48,-294.32 432.35,-288.52 421.8,-287.53 423.48,-294.32"/>
</a>
</g>
</g>
<!-- Node9&#45;&gt;Node9 -->
<g id="edge10_Node000009_Node000009" class="edge">
<title>Node9&#45;&gt;Node9</title>
<g id="a_edge10_Node000009_Node000009"><a xlink:title=" ">
<path fill="none" stroke="#63b8ff" d="M241.43,-280.52C228.65,-289.18 239.3,-298.12 273.38,-298.12 292.01,-298.12 303.64,-295.45 308.26,-291.61"/>
<polygon fill="#63b8ff" stroke="#63b8ff" points="311.65,-290.75 305.71,-281.99 304.89,-292.55 311.65,-290.75"/>
</a>
</g>
</g>
<!-- Node10 -->
<g id="Node000010" class="node">
<title>Node10</title>
<g id="a_Node000010"><a xlink:href="classCMD.html#ae9aa41884291132d680ec7dac421e9e0" target="_top" xlink:title=" ">
<polygon fill="white" stroke="#666666" points="542.25,-250.12 425,-250.12 425,-229.38 542.25,-229.38 542.25,-250.12"/>
<text xml:space="preserve" text-anchor="middle" x="483.62" y="-236.62" font-family="Helvetica,sans-Serif" font-size="10.00">CMD::multiline_exec</text>
</a>
</g>
</g>
<!-- Node9&#45;&gt;Node10 -->
<g id="edge11_Node000009_Node000010" class="edge">
<title>Node9&#45;&gt;Node10</title>
<g id="a_edge11_Node000009_Node000010"><a xlink:title=" ">
<path fill="none" stroke="#63b8ff" d="M349.85,-258.88C370.67,-255.88 393.15,-252.64 413.59,-249.7"/>
<polygon fill="#63b8ff" stroke="#63b8ff" points="413.81,-253.2 423.21,-248.31 412.81,-246.27 413.81,-253.2"/>
</a>
</g>
</g>
<!-- Node14 -->
<g id="Node000014" class="node">
<title>Node14</title>
<g id="a_Node000014"><a xlink:href="classFileOpener.html#a543e6848e7626c8531b454f2d3a97c24" target="_top" xlink:title="Open file for input.">
<polygon fill="white" stroke="#666666" points="553.88,-79.12 413.38,-79.12 413.38,-58.38 553.88,-58.38 553.88,-79.12"/>
<text xml:space="preserve" text-anchor="middle" x="483.62" y="-65.62" font-family="Helvetica,sans-Serif" font-size="10.00">FileOpener::OpenFileInput</text>
</a>
</g>
</g>
<!-- Node13&#45;&gt;Node14 -->
<g id="edge15_Node000013_Node000014" class="edge">
<title>Node13&#45;&gt;Node14</title>
<g id="a_edge15_Node000013_Node000014"><a xlink:title=" ">
<path fill="none" stroke="#63b8ff" d="M332.66,-106.2C362.64,-98.71 398.96,-89.64 428.34,-82.3"/>
<polygon fill="#63b8ff" stroke="#63b8ff" points="428.92,-85.77 437.77,-79.95 427.22,-78.98 428.92,-85.77"/>
</a>
</g>
</g>
<!-- Node15&#45;&gt;Node14 -->
<g id="edge17_Node000015_Node000014" class="edge">
<title>Node15&#45;&gt;Node14</title>
<g id="a_edge17_Node000015_Node000014"><a xlink:title=" ">
<path fill="none" stroke="#63b8ff" d="M332.66,-68.75C353.97,-68.75 378.48,-68.75 401.42,-68.75"/>
<polygon fill="#63b8ff" stroke="#63b8ff" points="401.38,-72.25 411.38,-68.75 401.38,-65.25 401.38,-72.25"/>
</a>
</g>
</g>
<!-- Node16&#45;&gt;Node14 -->
<g id="edge19_Node000016_Node000014" class="edge">
<title>Node16&#45;&gt;Node14</title>
<g id="a_edge19_Node000016_Node000014"><a xlink:title=" ">
<path fill="none" stroke="#63b8ff" d="M332.66,-31.3C362.64,-38.79 398.96,-47.86 428.34,-55.2"/>
<polygon fill="#63b8ff" stroke="#63b8ff" points="427.22,-58.52 437.77,-57.55 428.92,-51.73 427.22,-58.52"/>
</a>
</g>
</g>
</g>
</svg>
