<?xml version="1.0" encoding="UTF-8" standalone="no"?>
<!DOCTYPE svg PUBLIC "-//W3C//DTD SVG 1.1//EN"
 "http://www.w3.org/Graphics/SVG/1.1/DTD/svg11.dtd">
<!-- Generated by graphviz version 14.1.5 (0)
 -->
<!-- Title: SoundBoard::LoadSound Pages: 1 -->
<svg width="413pt" height="68pt"
 viewBox="0.00 0.00 413.00 68.00" xmlns="http://www.w3.org/2000/svg" xmlns:xlink="http://www.w3.org/1999/xlink">
<g id="graph0" class="graph" transform="scale(1 1) rotate(0) translate(4 63.75)">
<title>SoundBoard::LoadSound</title>
<!-- Node1 -->
<g id="Node000001" class="node">
<title>Node1</title>
<g id="a_Node000001"><a xlink:title=" ">
<polygon fill="#999999" stroke="#666666" points="133.75,-39.75 0,-39.75 0,-19 133.75,-19 133.75,-39.75"/>
<text xml:space="preserve" text-anchor="middle" x="66.88" y="-26.25" font-family="Helvetica,sans-Serif" font-size="10.00">SoundBoard::LoadSound</text>
</a>
</g>
</g>
<!-- Node2 -->
<g id="Node000002" class="node">
<title>Node2</title>
<g id="a_Node000002"><a xlink:href="classLogger.html#ac8b6378bb5ffa1af9f64821aa3c7f9ea" target="_top" xlink:title="Log that something went wrong.">
<polygon fill="white" stroke="#666666" points="255.5,-39.75 169.75,-39.75 169.75,-19 255.5,-19 255.5,-39.75"/>
<text xml:space="preserve" text-anchor="middle" x="212.62" y="-26.25" font-family="Helvetica,sans-Serif" font-size="10.00">Logger::LogErr</text>
</a>
</g>
</g>
<!-- Node1&#45;&gt;Node2 -->
<g id="edge1_Node000001_Node000002" class="edge">
<title>Node1&#45;&gt;Node2</title>
<g id="a_edge1_Node000001_Node000002"><a xlink:title=" ">
<path fill="none" stroke="#63b8ff" d="M133.86,-29.38C141.99,-29.38 150.23,-29.38 158.14,-29.38"/>
<polygon fill="#63b8ff" stroke="#63b8ff" points="157.95,-32.88 167.95,-29.38 157.95,-25.88 157.95,-32.88"/>
</a>
</g>
</g>
<!-- Node3 -->
<g id="Node000003" class="node">
<title>Node3</title>
<g id="a_Node000003"><a xlink:href="classLogger.html#abfbabf8d80ae90f870d9814c8559ed3a" target="_top" xlink:title="Return a string time formatted as YY:MM:DD hh:mm::ss.">
<polygon fill="white" stroke="#666666" points="405,-59.75 291.5,-59.75 291.5,-39 405,-39 405,-59.75"/>
<text xml:space="preserve" text-anchor="middle" x="348.25" y="-46.25" font-family="Helvetica,sans-Serif" font-size="10.00">Logger::FormatTime</text>
</a>
</g>
</g>
<!-- Node2&#45;&gt;Node3 -->
<g id="edge2_Node000002_Node000003" class="edge">
<title>Node2&#45;&gt;Node3</title>
<g id="a_edge2_Node000002_Node000003"><a xlink:title=" ">
<path fill="none" stroke="#63b8ff" d="M255.9,-35.7C263.58,-36.85 271.76,-38.08 279.94,-39.3"/>
<polygon fill="#63b8ff" stroke="#63b8ff" points="279.16,-42.72 289.57,-40.74 280.2,-35.8 279.16,-42.72"/>
</a>
</g>
</g>
<!-- Node4 -->
<g id="Node000004" class="node">
<title>Node4</title>
<g id="a_Node000004"><a xlink:href="classLogger.html#ad6de808cee6c544b62b7a843a7918a78" target="_top" xlink:title="Return the given string with format code to make it red.">
<polygon fill="white" stroke="#666666" points="398.25,-20.75 298.25,-20.75 298.25,0 398.25,0 398.25,-20.75"/>
<text xml:space="preserve" text-anchor="middle" x="348.25" y="-7.25" font-family="Helvetica,sans-Serif" font-size="10.00">Logger::MakeRed</text>
</a>
</g>
</g>
<!-- Node2&#45;&gt;Node4 -->
<g id="edge3_Node000002_Node000004" class="edge">
<title>Node2&#45;&gt;Node4</title>
<g id="a_edge3_Node000002_Node000004"><a xlink:title=" ">
<path fill="none" stroke="#63b8ff" d="M255.9,-23.36C265.68,-21.97 276.26,-20.47 286.64,-18.99"/>
<polygon fill="#63b8ff" stroke="#63b8ff" points="286.87,-22.5 296.28,-17.62 285.89,-15.57 286.87,-22.5"/>
</a>
</g>
</g>
</g>
</svg>
