<?xml version="1.0" encoding="UTF-8" standalone="no"?>
<!DOCTYPE svg PUBLIC "-//W3C//DTD SVG 1.1//EN"
 "http://www.w3.org/Graphics/SVG/1.1/DTD/svg11.dtd">
<!-- Generated by graphviz version 14.1.5 (0)
 -->
<!-- Title: Logger::LogOk Pages: 1 -->
<svg width="243pt" height="68pt"
 viewBox="0.00 0.00 243.00 68.00" xmlns="http://www.w3.org/2000/svg" xmlns:xlink="http://www.w3.org/1999/xlink">
<g id="graph0" class="graph" transform="scale(1 1) rotate(0) translate(4 63.75)">
<title>Logger::LogOk</title>
<!-- Node1 -->
<g id="Node000001" class="node">
<title>Node1</title>
<g id="a_Node000001"><a xlink:title="Log that something went all right.">
<polygon fill="#999999" stroke="#666666" points="85.75,-39.75 0,-39.75 0,-19 85.75,-19 85.75,-39.75"/>
<text xml:space="preserve" text-anchor="middle" x="42.88" y="-26.25" font-family="Helvetica,sans-Serif" font-size="10.00">Logger::LogOk</text>
</a>
</g>
</g>
<!-- Node2 -->
<g id="Node000002" class="node">
<title>Node2</title>
<g id="a_Node000002"><a xlink:href="classLogger.html#abfbabf8d80ae90f870d9814c8559ed3a" target="_top" xlink:title="Return a string time formatted as YY:MM:DD hh:mm::ss.">
<polygon fill="white" stroke="#666666" points="235.25,-59.75 121.75,-59.75 121.75,-39 235.25,-39 235.25,-59.75"/>
<text xml:space="preserve" text-anchor="middle" x="178.5" y="-46.25" font-family="Helvetica,sans-Serif" font-size="10.00">Logger::FormatTime</text>
</a>
</g>
</g>
<!-- Node1&#45;&gt;Node2 -->
<g id="edge1_Node000001_Node000002" class="edge">
<title>Node1&#45;&gt;Node2</title>
<g id="a_edge1_Node000001_Node000002"><a xlink:title=" ">
<path fill="none" stroke="#63b8ff" d="M86.15,-35.7C93.83,-36.85 102.01,-38.08 110.19,-39.3"/>
<polygon fill="#63b8ff" stroke="#63b8ff" points="109.41,-42.72 119.82,-40.74 110.45,-35.8 109.41,-42.72"/>
</a>
</g>
</g>
<!-- Node3 -->
<g id="Node000003" class="node">
<title>Node3</title>
<g id="a_Node000003"><a xlink:href="classLogger.html#a3d377d001c0dd3e47372d281326e529c" target="_top" xlink:title="Return the given string with format code to make it green.">
<polygon fill="white" stroke="#666666" points="233.75,-20.75 123.25,-20.75 123.25,0 233.75,0 233.75,-20.75"/>
<text xml:space="preserve" text-anchor="middle" x="178.5" y="-7.25" font-family="Helvetica,sans-Serif" font-size="10.00">Logger::MakeGreen</text>
</a>
</g>
</g>
<!-- Node1&#45;&gt;Node3 -->
<g id="edge2_Node000001_Node000003" class="edge">
<title>Node1&#45;&gt;Node3</title>
<g id="a_edge2_Node000001_Node000003"><a xlink:title=" ">
<path fill="none" stroke="#63b8ff" d="M86.15,-23.36C94.24,-22.21 102.87,-20.99 111.49,-19.76"/>
<polygon fill="#63b8ff" stroke="#63b8ff" points="111.86,-23.24 121.27,-18.37 110.87,-16.31 111.86,-23.24"/>
</a>
</g>
</g>
</g>
</svg>
