<?xml version="1.0" encoding="UTF-8" standalone="no"?>
<!DOCTYPE svg PUBLIC "-//W3C//DTD SVG 1.1//EN"
 "http://www.w3.org/Graphics/SVG/1.1/DTD/svg11.dtd">
<!-- Generated by graphviz version 14.1.5 (0)
 -->
<!-- Title: RoomManager::GenerateRoom Pages: 1 -->
<svg width="345pt" height="146pt"
 viewBox="0.00 0.00 345.00 146.00" xmlns="http://www.w3.org/2000/svg" xmlns:xlink="http://www.w3.org/1999/xlink">
<g id="graph0" class="graph" transform="scale(1 1) rotate(0) translate(4 141.75)">
<title>RoomManager::GenerateRoom</title>
<!-- Node1 -->
<g id="Node000001" class="node">
<title>Node1</title>
<g id="a_Node000001"><a xlink:title="Generate a room in a given direction.">
<polygon fill="#999999" stroke="#666666" points="337.25,-78.75 170.5,-78.75 170.5,-58 337.25,-58 337.25,-78.75"/>
<text xml:space="preserve" text-anchor="middle" x="253.88" y="-65.25" font-family="Helvetica,sans-Serif" font-size="10.00">RoomManager::GenerateRoom</text>
</a>
</g>
</g>
<!-- Node2 -->
<g id="Node000002" class="node">
<title>Node2</title>
<g id="a_Node000002"><a xlink:href="classRoomManager.html#a7ea2e68d618617a00a3640dc96c3a58c" target="_top" xlink:title="Generate a room in the down direction if not present and set to current_room to it.">
<polygon fill="white" stroke="#666666" points="134.5,-137.75 0,-137.75 0,-117 134.5,-117 134.5,-137.75"/>
<text xml:space="preserve" text-anchor="middle" x="67.25" y="-124.25" font-family="Helvetica,sans-Serif" font-size="10.00">RoomManager::GoDown</text>
</a>
</g>
</g>
<!-- Node1&#45;&gt;Node2 -->
<g id="edge1_Node000001_Node000002" class="edge">
<title>Node1&#45;&gt;Node2</title>
<g id="a_edge1_Node000001_Node000002"><a xlink:title=" ">
<path fill="none" stroke="#63b8ff" d="M209.93,-82.81C187.5,-90.28 159.57,-99.46 134.5,-107.38 124.88,-110.41 114.43,-113.61 104.75,-116.54"/>
<polygon fill="#63b8ff" stroke="#63b8ff" points="210.98,-86.15 219.35,-79.67 208.76,-79.51 210.98,-86.15"/>
</a>
</g>
</g>
<!-- Node3 -->
<g id="Node000003" class="node">
<title>Node3</title>
<g id="a_Node000003"><a xlink:href="classRoomManager.html#ac9d2c260ac1d6beb105c9a522e9cd89e" target="_top" xlink:title="Generate a room in the left direction if not present and set to current_room to it.">
<polygon fill="white" stroke="#666666" points="130,-98.75 4.5,-98.75 4.5,-78 130,-78 130,-98.75"/>
<text xml:space="preserve" text-anchor="middle" x="67.25" y="-85.25" font-family="Helvetica,sans-Serif" font-size="10.00">RoomManager::GoLeft</text>
</a>
</g>
</g>
<!-- Node1&#45;&gt;Node3 -->
<g id="edge2_Node000001_Node000003" class="edge">
<title>Node1&#45;&gt;Node3</title>
<g id="a_edge2_Node000001_Node000003"><a xlink:title=" ">
<path fill="none" stroke="#63b8ff" d="M158.73,-78.57C149.11,-79.62 139.52,-80.65 130.37,-81.65"/>
<polygon fill="#63b8ff" stroke="#63b8ff" points="158.94,-82.07 168.51,-77.51 158.19,-75.11 158.94,-82.07"/>
</a>
</g>
</g>
<!-- Node4 -->
<g id="Node000004" class="node">
<title>Node4</title>
<g id="a_Node000004"><a xlink:href="classRoomManager.html#a2c6ebc2fdf995e2ae8884db8e027ffed" target="_top" xlink:title="Generate a room in the right direction if not present and set to current_room to it.">
<polygon fill="white" stroke="#666666" points="133.38,-59.75 1.12,-59.75 1.12,-39 133.38,-39 133.38,-59.75"/>
<text xml:space="preserve" text-anchor="middle" x="67.25" y="-46.25" font-family="Helvetica,sans-Serif" font-size="10.00">RoomManager::GoRight</text>
</a>
</g>
</g>
<!-- Node1&#45;&gt;Node4 -->
<g id="edge3_Node000001_Node000004" class="edge">
<title>Node1&#45;&gt;Node4</title>
<g id="a_edge3_Node000001_Node000004"><a xlink:title=" ">
<path fill="none" stroke="#63b8ff" d="M158.56,-58.67C150.15,-57.8 141.77,-56.94 133.68,-56.11"/>
<polygon fill="#63b8ff" stroke="#63b8ff" points="158.2,-62.15 168.51,-59.69 158.92,-55.19 158.2,-62.15"/>
</a>
</g>
</g>
<!-- Node5 -->
<g id="Node000005" class="node">
<title>Node5</title>
<g id="a_Node000005"><a xlink:href="classRoomManager.html#a117d404dfefa5259fe30f7fe16a91ade" target="_top" xlink:title="Generate a room in the up direction if not present and set to current_room to it.">
<polygon fill="white" stroke="#666666" points="127.38,-20.75 7.12,-20.75 7.12,0 127.38,0 127.38,-20.75"/>
<text xml:space="preserve" text-anchor="middle" x="67.25" y="-7.25" font-family="Helvetica,sans-Serif" font-size="10.00">RoomManager::GoUp</text>
</a>
</g>
</g>
<!-- Node1&#45;&gt;Node5 -->
<g id="edge4_Node000001_Node000005" class="edge">
<title>Node1&#45;&gt;Node5</title>
<g id="a_edge4_Node000001_Node000005"><a xlink:title=" ">
<path fill="none" stroke="#63b8ff" d="M208.95,-54.07C186.68,-46.87 159.18,-38.06 134.5,-30.38 124.75,-27.34 114.17,-24.11 104.39,-21.16"/>
<polygon fill="#63b8ff" stroke="#63b8ff" points="207.73,-57.36 218.32,-57.11 209.88,-50.7 207.73,-57.36"/>
</a>
</g>
</g>
</g>
</svg>
