<?xml version="1.0" encoding="UTF-8" standalone="no"?>
<!DOCTYPE svg PUBLIC "-//W3C//DTD SVG 1.1//EN"
 "http://www.w3.org/Graphics/SVG/1.1/DTD/svg11.dtd">
<!-- Generated by graphviz version 14.1.5 (0)
 -->
<!-- Title: src_game/WorldBuilding/hpp/RoomManager.hpp Pages: 1 -->
<svg width="749pt" height="364pt"
 viewBox="0.00 0.00 749.00 364.00" xmlns="http://www.w3.org/2000/svg" xmlns:xlink="http://www.w3.org/1999/xlink">
<g id="graph0" class="graph" transform="scale(1 1) rotate(0) translate(4 359.5)">
<title>src_game/WorldBuilding/hpp/RoomManager.hpp</title>
<!-- Node1 -->
<g id="Node000001" class="node">
<title>Node1</title>
<g id="a_Node000001"><a xlink:title=" ">
<polygon fill="#999999" stroke="#666666" points="311,-355.5 176.5,-355.5 176.5,-322 311,-322 311,-355.5"/>
<text xml:space="preserve" text-anchor="start" x="184.5" y="-342" font-family="Helvetica,sans-Serif" font-size="10.00">src_game/WorldBuilding</text>
<text xml:space="preserve" text-anchor="middle" x="243.75" y="-329.25" font-family="Helvetica,sans-Serif" font-size="10.00">/hpp/RoomManager.hpp</text>
</a>
</g>
</g>
<!-- Node2 -->
<g id="Node000002" class="node">
<title>Node2</title>
<g id="a_Node000002"><a xlink:title=" ">
<polygon fill="#e0e0e0" stroke="#999999" points="154.5,-286 101,-286 101,-265.25 154.5,-265.25 154.5,-286"/>
<text xml:space="preserve" text-anchor="middle" x="127.75" y="-272.5" font-family="Helvetica,sans-Serif" font-size="10.00">random</text>
</a>
</g>
</g>
<!-- Node1&#45;&gt;Node2 -->
<g id="edge1_Node000001_Node000002" class="edge">
<title>Node1&#45;&gt;Node2</title>
<g id="a_edge1_Node000001_Node000002"><a xlink:title=" ">
<path fill="none" stroke="#63b8ff" d="M212.97,-321.53C195.4,-312.27 173.53,-300.75 156.35,-291.69"/>
<polygon fill="#63b8ff" stroke="#63b8ff" points="158.15,-288.69 147.67,-287.12 154.88,-294.88 158.15,-288.69"/>
</a>
</g>
</g>
<!-- Node3 -->
<g id="Node000003" class="node">
<title>Node3</title>
<g id="a_Node000003"><a xlink:href="TextureManager_8hpp.html" target="_top" xlink:title=" ">
<polygon fill="white" stroke="#666666" points="409.12,-229.25 290.38,-229.25 290.38,-195.75 409.12,-195.75 409.12,-229.25"/>
<text xml:space="preserve" text-anchor="start" x="298.38" y="-215.75" font-family="Helvetica,sans-Serif" font-size="10.00">../../Textures/hpp</text>
<text xml:space="preserve" text-anchor="middle" x="349.75" y="-203" font-family="Helvetica,sans-Serif" font-size="10.00">/TextureManager.hpp</text>
</a>
</g>
</g>
<!-- Node1&#45;&gt;Node3 -->
<g id="edge2_Node000001_Node000003" class="edge">
<title>Node1&#45;&gt;Node3</title>
<g id="a_edge2_Node000001_Node000003"><a xlink:title=" ">
<path fill="none" stroke="#63b8ff" d="M257.61,-321.51C275.7,-300.3 307.54,-262.97 328.65,-238.24"/>
<polygon fill="#63b8ff" stroke="#63b8ff" points="331.08,-240.78 334.91,-230.9 325.75,-236.24 331.08,-240.78"/>
</a>
</g>
</g>
<!-- Node19 -->
<g id="Node000019" class="node">
<title>Node19</title>
<g id="a_Node000019"><a xlink:href="HerionFileException_8hpp.html" target="_top" xlink:title=" ">
<polygon fill="white" stroke="#666666" points="704.12,-103 567.38,-103 567.38,-69.5 704.12,-69.5 704.12,-103"/>
<text xml:space="preserve" text-anchor="start" x="575.38" y="-89.5" font-family="Helvetica,sans-Serif" font-size="10.00">../../Exceptions//hpp</text>
<text xml:space="preserve" text-anchor="middle" x="635.75" y="-76.75" font-family="Helvetica,sans-Serif" font-size="10.00">/HerionFileException.hpp</text>
</a>
</g>
</g>
<!-- Node1&#45;&gt;Node19 -->
<g id="edge24_Node000001_Node000019" class="edge">
<title>Node1&#45;&gt;Node19</title>
<g id="a_edge24_Node000001_Node000019"><a xlink:title=" ">
<path fill="none" stroke="#63b8ff" d="M270.09,-321.55C304.26,-300.48 365.66,-262.45 417.75,-229.25 483.3,-187.47 559.24,-137.69 601.97,-109.55"/>
<polygon fill="#63b8ff" stroke="#63b8ff" points="603.64,-112.64 610.07,-104.21 599.79,-106.79 603.64,-112.64"/>
</a>
</g>
</g>
<!-- Node21 -->
<g id="Node000021" class="node">
<title>Node21</title>
<g id="a_Node000021"><a xlink:href="Tile_8hpp.html" target="_top" xlink:title=" ">
<polygon fill="white" stroke="#666666" points="196.88,-222.88 142.62,-222.88 142.62,-202.12 196.88,-202.12 196.88,-222.88"/>
<text xml:space="preserve" text-anchor="middle" x="169.75" y="-209.38" font-family="Helvetica,sans-Serif" font-size="10.00">Tile.hpp</text>
</a>
</g>
</g>
<!-- Node1&#45;&gt;Node21 -->
<g id="edge28_Node000001_Node000021" class="edge">
<title>Node1&#45;&gt;Node21</title>
<g id="a_edge28_Node000001_Node000021"><a xlink:title=" ">
<path fill="none" stroke="#63b8ff" d="M228.94,-321.81C220.3,-311.98 209.6,-298.83 201.75,-286 191.56,-269.33 182.82,-248.84 177.07,-233.9"/>
<polygon fill="#63b8ff" stroke="#63b8ff" points="180.42,-232.86 173.65,-224.71 173.86,-235.3 180.42,-232.86"/>
</a>
</g>
</g>
<!-- Node22 -->
<g id="Node000022" class="node">
<title>Node22</title>
<g id="a_Node000022"><a xlink:href="Room_8hpp.html" target="_top" xlink:title=" ">
<polygon fill="white" stroke="#666666" points="276.5,-286 211,-286 211,-265.25 276.5,-265.25 276.5,-286"/>
<text xml:space="preserve" text-anchor="middle" x="243.75" y="-272.5" font-family="Helvetica,sans-Serif" font-size="10.00">Room.hpp</text>
</a>
</g>
</g>
<!-- Node1&#45;&gt;Node22 -->
<g id="edge32_Node000001_Node000022" class="edge">
<title>Node1&#45;&gt;Node22</title>
<g id="a_edge32_Node000001_Node000022"><a xlink:title=" ">
<path fill="none" stroke="#63b8ff" d="M243.75,-321.69C243.75,-314.35 243.75,-305.57 243.75,-297.71"/>
<polygon fill="#63b8ff" stroke="#63b8ff" points="247.25,-297.98 243.75,-287.98 240.25,-297.98 247.25,-297.98"/>
</a>
</g>
</g>
<!-- Node4 -->
<g id="Node000004" class="node">
<title>Node4</title>
<g id="a_Node000004"><a xlink:title=" ">
<polygon fill="#e0e0e0" stroke="#999999" points="71.5,-96.62 0,-96.62 0,-75.88 71.5,-75.88 71.5,-96.62"/>
<text xml:space="preserve" text-anchor="middle" x="35.75" y="-83.12" font-family="Helvetica,sans-Serif" font-size="10.00">SDL3/SDL.h</text>
</a>
</g>
</g>
<!-- Node3&#45;&gt;Node4 -->
<g id="edge3_Node000003_Node000004" class="edge">
<title>Node3&#45;&gt;Node4</title>
<g id="a_edge3_Node000003_Node000004"><a xlink:title=" ">
<path fill="none" stroke="#63b8ff" d="M290.02,-198.55C285.2,-197.57 280.4,-196.63 275.75,-195.75 179.69,-177.57 132.63,-223.77 58.75,-159.75 43.96,-146.93 38.58,-124.65 36.68,-108.17"/>
<polygon fill="#63b8ff" stroke="#63b8ff" points="40.19,-108.15 35.92,-98.45 33.21,-108.69 40.19,-108.15"/>
</a>
</g>
</g>
<!-- Node5 -->
<g id="Node000005" class="node">
<title>Node5</title>
<g id="a_Node000005"><a xlink:title=" ">
<polygon fill="#e0e0e0" stroke="#999999" points="471.5,-96.62 364,-96.62 364,-75.88 471.5,-75.88 471.5,-96.62"/>
<text xml:space="preserve" text-anchor="middle" x="417.75" y="-83.12" font-family="Helvetica,sans-Serif" font-size="10.00">SDL3/SDL_image.h</text>
</a>
</g>
</g>
<!-- Node3&#45;&gt;Node5 -->
<g id="edge4_Node000003_Node000005" class="edge">
<title>Node3&#45;&gt;Node5</title>
<g id="a_edge4_Node000003_Node000005"><a xlink:title=" ">
<path fill="none" stroke="#63b8ff" d="M396.3,-195.35C412.36,-187.29 428.6,-175.75 437.75,-159.75 447.34,-142.99 439.18,-121.4 430.57,-106.16"/>
<polygon fill="#63b8ff" stroke="#63b8ff" points="433.79,-104.7 425.55,-98.04 427.83,-108.38 433.79,-104.7"/>
</a>
</g>
</g>
<!-- Node6 -->
<g id="Node000006" class="node">
<title>Node6</title>
<g id="a_Node000006"><a xlink:title=" ">
<polygon fill="#e0e0e0" stroke="#999999" points="285.38,-159.75 198.12,-159.75 198.12,-139 285.38,-139 285.38,-159.75"/>
<text xml:space="preserve" text-anchor="middle" x="241.75" y="-146.25" font-family="Helvetica,sans-Serif" font-size="10.00">SDL3/SDL_ttf.h</text>
</a>
</g>
</g>
<!-- Node3&#45;&gt;Node6 -->
<g id="edge5_Node000003_Node000006" class="edge">
<title>Node3&#45;&gt;Node6</title>
<g id="a_edge5_Node000003_Node000006"><a xlink:title=" ">
<path fill="none" stroke="#63b8ff" d="M321.09,-195.28C304.89,-186.11 284.76,-174.72 268.83,-165.7"/>
<polygon fill="#63b8ff" stroke="#63b8ff" points="270.79,-162.79 260.36,-160.91 267.34,-168.88 270.79,-162.79"/>
</a>
</g>
</g>
<!-- Node7 -->
<g id="Node000007" class="node">
<title>Node7</title>
<g id="a_Node000007"><a xlink:title=" ">
<polygon fill="#e0e0e0" stroke="#999999" points="534.88,-27.12 480.62,-27.12 480.62,-6.38 534.88,-6.38 534.88,-27.12"/>
<text xml:space="preserve" text-anchor="middle" x="507.75" y="-13.62" font-family="Helvetica,sans-Serif" font-size="10.00">fstream</text>
</a>
</g>
</g>
<!-- Node3&#45;&gt;Node7 -->
<g id="edge6_Node000003_Node000007" class="edge">
<title>Node3&#45;&gt;Node7</title>
<g id="a_edge6_Node000003_Node000007"><a xlink:title=" ">
<path fill="none" stroke="#63b8ff" d="M409.61,-198.03C432.82,-190.21 458.01,-178.13 475.75,-159.75 507.39,-126.98 510.34,-69.96 509.31,-39.08"/>
<polygon fill="#63b8ff" stroke="#63b8ff" points="512.81,-38.91 508.78,-29.11 505.82,-39.28 512.81,-38.91"/>
</a>
</g>
</g>
<!-- Node8 -->
<g id="Node000008" class="node">
<title>Node8</title>
<g id="a_Node000008"><a xlink:title=" ">
<polygon fill="#e0e0e0" stroke="#999999" points="462.62,-27.12 406.88,-27.12 406.88,-6.38 462.62,-6.38 462.62,-27.12"/>
<text xml:space="preserve" text-anchor="middle" x="434.75" y="-13.62" font-family="Helvetica,sans-Serif" font-size="10.00">sstream</text>
</a>
</g>
</g>
<!-- Node3&#45;&gt;Node8 -->
<g id="edge7_Node000003_Node000008" class="edge">
<title>Node3&#45;&gt;Node8</title>
<g id="a_edge7_Node000003_Node000008"><a xlink:title=" ">
<path fill="none" stroke="#63b8ff" d="M398.27,-195.3C417.4,-187.03 438.41,-175.36 453.75,-159.75 473.33,-139.83 474.6,-130.25 480.75,-103 484.03,-88.48 486.04,-83.42 480.75,-69.5 475.71,-56.25 465.56,-44.23 456.07,-35.11"/>
<polygon fill="#63b8ff" stroke="#63b8ff" points="458.61,-32.69 448.83,-28.62 453.94,-37.9 458.61,-32.69"/>
</a>
</g>
</g>
<!-- Node9 -->
<g id="Node000009" class="node">
<title>Node9</title>
<g id="a_Node000009"><a xlink:title=" ">
<polygon fill="#e0e0e0" stroke="#999999" points="396,-159.75 303.5,-159.75 303.5,-139 396,-139 396,-159.75"/>
<text xml:space="preserve" text-anchor="middle" x="349.75" y="-146.25" font-family="Helvetica,sans-Serif" font-size="10.00">unordered_map</text>
</a>
</g>
</g>
<!-- Node3&#45;&gt;Node9 -->
<g id="edge8_Node000003_Node000009" class="edge">
<title>Node3&#45;&gt;Node9</title>
<g id="a_edge8_Node000003_Node000009"><a xlink:title=" ">
<path fill="none" stroke="#63b8ff" d="M349.75,-195.44C349.75,-188.1 349.75,-179.32 349.75,-171.46"/>
<polygon fill="#63b8ff" stroke="#63b8ff" points="353.25,-171.73 349.75,-161.73 346.25,-171.73 353.25,-171.73"/>
</a>
</g>
</g>
<!-- Node10 -->
<g id="Node000010" class="node">
<title>Node10</title>
<g id="a_Node000010"><a xlink:href="Logger_8hpp.html" target="_top" xlink:title=" ">
<polygon fill="white" stroke="#666666" points="346,-96.62 211.5,-96.62 211.5,-75.88 346,-75.88 346,-96.62"/>
<text xml:space="preserve" text-anchor="middle" x="278.75" y="-83.12" font-family="Helvetica,sans-Serif" font-size="10.00">../../Utils/hpp/Logger.hpp</text>
</a>
</g>
</g>
<!-- Node3&#45;&gt;Node10 -->
<g id="edge9_Node000003_Node000010" class="edge">
<title>Node3&#45;&gt;Node10</title>
<g id="a_edge9_Node000003_Node000010"><a xlink:title=" ">
<path fill="none" stroke="#63b8ff" d="M375.83,-195.49C395.94,-181.05 418.21,-159.08 404.75,-139 395.36,-124.99 357.3,-110.52 325.44,-100.46"/>
<polygon fill="#63b8ff" stroke="#63b8ff" points="326.52,-97.13 315.93,-97.53 324.46,-103.82 326.52,-97.13"/>
</a>
</g>
</g>
<!-- Node17 -->
<g id="Node000017" class="node">
<title>Node17</title>
<g id="a_Node000017"><a xlink:href="Texture_8hpp.html" target="_top" xlink:title=" ">
<polygon fill="white" stroke="#666666" points="141.25,-159.75 68.25,-159.75 68.25,-139 141.25,-139 141.25,-159.75"/>
<text xml:space="preserve" text-anchor="middle" x="104.75" y="-146.25" font-family="Helvetica,sans-Serif" font-size="10.00">Texture.hpp</text>
</a>
</g>
</g>
<!-- Node3&#45;&gt;Node17 -->
<g id="edge18_Node000003_Node000017" class="edge">
<title>Node3&#45;&gt;Node17</title>
<g id="a_edge18_Node000003_Node000017"><a xlink:title=" ">
<path fill="none" stroke="#63b8ff" d="M290.13,-196.63C247.97,-186.11 192.19,-172.19 152.86,-162.38"/>
<polygon fill="#63b8ff" stroke="#63b8ff" points="153.75,-158.99 143.2,-159.97 152.05,-165.78 153.75,-158.99"/>
</a>
</g>
</g>
<!-- Node10&#45;&gt;Node7 -->
<g id="edge14_Node000010_Node000007" class="edge">
<title>Node10&#45;&gt;Node7</title>
<g id="a_edge14_Node000010_Node000007"><a xlink:title=" ">
<path fill="none" stroke="#63b8ff" d="M323.01,-75.39C362.51,-66.11 421.66,-51.06 471.75,-33.5 473.28,-32.96 474.83,-32.39 476.4,-31.79"/>
<polygon fill="#63b8ff" stroke="#63b8ff" points="477.3,-35.21 485.24,-28.19 474.66,-28.72 477.3,-35.21"/>
</a>
</g>
</g>
<!-- Node10&#45;&gt;Node8 -->
<g id="edge13_Node000010_Node000008" class="edge">
<title>Node10&#45;&gt;Node8</title>
<g id="a_edge13_Node000010_Node000008"><a xlink:title=" ">
<path fill="none" stroke="#63b8ff" d="M301.32,-75.56C325.46,-65.19 364.83,-48.23 398.75,-33.5 399.85,-33.02 400.96,-32.54 402.08,-32.05"/>
<polygon fill="#63b8ff" stroke="#63b8ff" points="403.14,-35.41 410.9,-28.2 400.34,-28.99 403.14,-35.41"/>
</a>
</g>
</g>
<!-- Node11 -->
<g id="Node000011" class="node">
<title>Node11</title>
<g id="a_Node000011"><a xlink:title=" ">
<polygon fill="#e0e0e0" stroke="#999999" points="596.62,-27.12 552.88,-27.12 552.88,-6.38 596.62,-6.38 596.62,-27.12"/>
<text xml:space="preserve" text-anchor="middle" x="574.75" y="-13.62" font-family="Helvetica,sans-Serif" font-size="10.00">string</text>
</a>
</g>
</g>
<!-- Node10&#45;&gt;Node11 -->
<g id="edge10_Node000010_Node000011" class="edge">
<title>Node10&#45;&gt;Node11</title>
<g id="a_edge10_Node000010_Node000011"><a xlink:title=" ">
<path fill="none" stroke="#63b8ff" d="M325.75,-75.39C335.34,-73.41 345.37,-71.37 354.75,-69.5 438.62,-52.82 462.83,-61.14 543.75,-33.5 544.92,-33.1 546.1,-32.66 547.29,-32.2"/>
<polygon fill="#63b8ff" stroke="#63b8ff" points="548.7,-35.4 556.37,-28.09 545.81,-29.02 548.7,-35.4"/>
</a>
</g>
</g>
<!-- Node12 -->
<g id="Node000012" class="node">
<title>Node12</title>
<g id="a_Node000012"><a xlink:title=" ">
<polygon fill="#e0e0e0" stroke="#999999" points="658.62,-27.12 614.88,-27.12 614.88,-6.38 658.62,-6.38 658.62,-27.12"/>
<text xml:space="preserve" text-anchor="middle" x="636.75" y="-13.62" font-family="Helvetica,sans-Serif" font-size="10.00">ctime</text>
</a>
</g>
</g>
<!-- Node10&#45;&gt;Node12 -->
<g id="edge11_Node000010_Node000012" class="edge">
<title>Node10&#45;&gt;Node12</title>
<g id="a_edge11_Node000010_Node000012"><a xlink:title=" ">
<path fill="none" stroke="#63b8ff" d="M324.07,-75.38C334.15,-73.32 344.8,-71.24 354.75,-69.5 465.76,-50.06 498.3,-67.48 605.75,-33.5 606.93,-33.13 608.12,-32.71 609.31,-32.27"/>
<polygon fill="#63b8ff" stroke="#63b8ff" points="610.69,-35.48 618.41,-28.23 607.85,-29.08 610.69,-35.48"/>
</a>
</g>
</g>
<!-- Node13 -->
<g id="Node000013" class="node">
<title>Node13</title>
<g id="a_Node000013"><a xlink:title=" ">
<polygon fill="#e0e0e0" stroke="#999999" points="127.5,-27.12 68,-27.12 68,-6.38 127.5,-6.38 127.5,-27.12"/>
<text xml:space="preserve" text-anchor="middle" x="97.75" y="-13.62" font-family="Helvetica,sans-Serif" font-size="10.00">iostream</text>
</a>
</g>
</g>
<!-- Node10&#45;&gt;Node13 -->
<g id="edge12_Node000010_Node000013" class="edge">
<title>Node10&#45;&gt;Node13</title>
<g id="a_edge12_Node000010_Node000013"><a xlink:title=" ">
<path fill="none" stroke="#63b8ff" d="M250.89,-75.42C222.18,-65.21 176.19,-48.64 136.75,-33.5 135.22,-32.91 133.65,-32.3 132.07,-31.69"/>
<polygon fill="#63b8ff" stroke="#63b8ff" points="133.62,-28.53 123.03,-28.1 131.04,-35.04 133.62,-28.53"/>
</a>
</g>
</g>
<!-- Node14 -->
<g id="Node000014" class="node">
<title>Node14</title>
<g id="a_Node000014"><a xlink:title=" ">
<polygon fill="#e0e0e0" stroke="#999999" points="389.25,-27.12 340.25,-27.12 340.25,-6.38 389.25,-6.38 389.25,-27.12"/>
<text xml:space="preserve" text-anchor="middle" x="364.75" y="-13.62" font-family="Helvetica,sans-Serif" font-size="10.00">chrono</text>
</a>
</g>
</g>
<!-- Node10&#45;&gt;Node14 -->
<g id="edge15_Node000010_Node000014" class="edge">
<title>Node10&#45;&gt;Node14</title>
<g id="a_edge15_Node000010_Node000014"><a xlink:title=" ">
<path fill="none" stroke="#63b8ff" d="M291.07,-75.58C304.66,-64.91 326.78,-47.55 343.24,-34.63"/>
<polygon fill="#63b8ff" stroke="#63b8ff" points="345.28,-37.48 350.98,-28.56 340.95,-31.98 345.28,-37.48"/>
</a>
</g>
</g>
<!-- Node15 -->
<g id="Node000015" class="node">
<title>Node15</title>
<g id="a_Node000015"><a xlink:title=" ">
<polygon fill="#e0e0e0" stroke="#999999" points="201.62,-27.12 145.88,-27.12 145.88,-6.38 201.62,-6.38 201.62,-27.12"/>
<text xml:space="preserve" text-anchor="middle" x="173.75" y="-13.62" font-family="Helvetica,sans-Serif" font-size="10.00">iomanip</text>
</a>
</g>
</g>
<!-- Node10&#45;&gt;Node15 -->
<g id="edge16_Node000010_Node000015" class="edge">
<title>Node10&#45;&gt;Node15</title>
<g id="a_edge16_Node000010_Node000015"><a xlink:title=" ">
<path fill="none" stroke="#63b8ff" d="M263.71,-75.58C246.73,-64.66 218.84,-46.74 198.62,-33.73"/>
<polygon fill="#63b8ff" stroke="#63b8ff" points="200.69,-30.9 190.38,-28.44 196.9,-36.79 200.69,-30.9"/>
</a>
</g>
</g>
<!-- Node16 -->
<g id="Node000016" class="node">
<title>Node16</title>
<g id="a_Node000016"><a xlink:title=" ">
<polygon fill="#e0e0e0" stroke="#999999" points="321.88,-33.5 219.62,-33.5 219.62,0 321.88,0 321.88,-33.5"/>
<text xml:space="preserve" text-anchor="start" x="227.62" y="-20" font-family="Helvetica,sans-Serif" font-size="10.00">../../../src_TCP/hpp</text>
<text xml:space="preserve" text-anchor="middle" x="270.75" y="-7.25" font-family="Helvetica,sans-Serif" font-size="10.00">/TcpClient.hpp</text>
</a>
</g>
</g>
<!-- Node10&#45;&gt;Node16 -->
<g id="edge17_Node000010_Node000016" class="edge">
<title>Node10&#45;&gt;Node16</title>
<g id="a_edge17_Node000010_Node000016"><a xlink:title=" ">
<path fill="none" stroke="#63b8ff" d="M277.6,-75.58C276.66,-67.6 275.27,-55.88 273.99,-45.07"/>
<polygon fill="#63b8ff" stroke="#63b8ff" points="277.5,-44.94 272.84,-35.42 270.55,-45.76 277.5,-44.94"/>
</a>
</g>
</g>
<!-- Node17&#45;&gt;Node4 -->
<g id="edge20_Node000017_Node000004" class="edge">
<title>Node17&#45;&gt;Node4</title>
<g id="a_edge20_Node000017_Node000004"><a xlink:title=" ">
<path fill="none" stroke="#63b8ff" d="M93.66,-138.55C83.24,-129.32 67.42,-115.31 54.95,-104.26"/>
<polygon fill="#63b8ff" stroke="#63b8ff" points="57.52,-101.86 47.71,-97.85 52.88,-107.1 57.52,-101.86"/>
</a>
</g>
</g>
<!-- Node17&#45;&gt;Node5 -->
<g id="edge19_Node000017_Node000005" class="edge">
<title>Node17&#45;&gt;Node5</title>
<g id="a_edge19_Node000017_Node000005"><a xlink:title=" ">
<path fill="none" stroke="#63b8ff" d="M141.33,-142.51C190.17,-134.5 279.29,-119.26 354.75,-103 359.4,-102 364.23,-100.9 369.05,-99.76"/>
<polygon fill="#63b8ff" stroke="#63b8ff" points="369.83,-103.17 378.73,-97.42 368.19,-96.37 369.83,-103.17"/>
</a>
</g>
</g>
<!-- Node17&#45;&gt;Node10 -->
<g id="edge23_Node000017_Node000010" class="edge">
<title>Node17&#45;&gt;Node10</title>
<g id="a_edge23_Node000017_Node000010"><a xlink:title=" ">
<path fill="none" stroke="#63b8ff" d="M132.71,-138.55C161.88,-128.31 207.82,-112.17 240.38,-100.73"/>
<polygon fill="#63b8ff" stroke="#63b8ff" points="241.16,-104.16 249.44,-97.55 238.84,-97.56 241.16,-104.16"/>
</a>
</g>
</g>
<!-- Node17&#45;&gt;Node13 -->
<g id="edge21_Node000017_Node000013" class="edge">
<title>Node17&#45;&gt;Node13</title>
<g id="a_edge21_Node000017_Node000013"><a xlink:title=" ">
<path fill="none" stroke="#63b8ff" d="M104.22,-138.56C103.09,-117.46 100.41,-67.41 98.88,-38.79"/>
<polygon fill="#63b8ff" stroke="#63b8ff" points="102.37,-38.64 98.34,-28.84 95.38,-39.01 102.37,-38.64"/>
</a>
</g>
</g>
<!-- Node18 -->
<g id="Node000018" class="node">
<title>Node18</title>
<g id="a_Node000018"><a xlink:title=" ">
<polygon fill="#e0e0e0" stroke="#999999" points="174.12,-96.62 127.38,-96.62 127.38,-75.88 174.12,-75.88 174.12,-96.62"/>
<text xml:space="preserve" text-anchor="middle" x="150.75" y="-83.12" font-family="Helvetica,sans-Serif" font-size="10.00">cmath</text>
</a>
</g>
</g>
<!-- Node17&#45;&gt;Node18 -->
<g id="edge22_Node000017_Node000018" class="edge">
<title>Node17&#45;&gt;Node18</title>
<g id="a_edge22_Node000017_Node000018"><a xlink:title=" ">
<path fill="none" stroke="#63b8ff" d="M112.14,-138.55C118.75,-129.77 128.62,-116.66 136.73,-105.89"/>
<polygon fill="#63b8ff" stroke="#63b8ff" points="139.4,-108.15 142.62,-98.05 133.81,-103.94 139.4,-108.15"/>
</a>
</g>
</g>
<!-- Node19&#45;&gt;Node11 -->
<g id="edge26_Node000019_Node000011" class="edge">
<title>Node19&#45;&gt;Node11</title>
<g id="a_edge26_Node000019_Node000011"><a xlink:title=" ">
<path fill="none" stroke="#63b8ff" d="M621.29,-69.25C612.25,-59.24 600.57,-46.32 591.17,-35.92"/>
<polygon fill="#63b8ff" stroke="#63b8ff" points="593.94,-33.77 584.64,-28.69 588.75,-38.46 593.94,-33.77"/>
</a>
</g>
</g>
<!-- Node19&#45;&gt;Node12 -->
<g id="edge27_Node000019_Node000012" class="edge">
<title>Node19&#45;&gt;Node12</title>
<g id="a_edge27_Node000019_Node000012"><a xlink:title=" ">
<path fill="none" stroke="#63b8ff" d="M635.99,-69.25C636.12,-60.15 636.29,-48.64 636.44,-38.82"/>
<polygon fill="#63b8ff" stroke="#63b8ff" points="639.93,-39.14 636.58,-29.09 632.93,-39.03 639.93,-39.14"/>
</a>
</g>
</g>
<!-- Node20 -->
<g id="Node000020" class="node">
<title>Node20</title>
<g id="a_Node000020"><a xlink:title=" ">
<polygon fill="#e0e0e0" stroke="#999999" points="740.75,-27.12 676.75,-27.12 676.75,-6.38 740.75,-6.38 740.75,-27.12"/>
<text xml:space="preserve" text-anchor="middle" x="708.75" y="-13.62" font-family="Helvetica,sans-Serif" font-size="10.00">stdexcept</text>
</a>
</g>
</g>
<!-- Node19&#45;&gt;Node20 -->
<g id="edge25_Node000019_Node000020" class="edge">
<title>Node19&#45;&gt;Node20</title>
<g id="a_edge25_Node000019_Node000020"><a xlink:title=" ">
<path fill="none" stroke="#63b8ff" d="M653.05,-69.25C664.1,-59.04 678.42,-45.8 689.78,-35.29"/>
<polygon fill="#63b8ff" stroke="#63b8ff" points="692.05,-37.96 697.02,-28.6 687.3,-32.82 692.05,-37.96"/>
</a>
</g>
</g>
<!-- Node21&#45;&gt;Node4 -->
<g id="edge29_Node000021_Node000004" class="edge">
<title>Node21&#45;&gt;Node4</title>
<g id="a_edge29_Node000021_Node000004"><a xlink:title=" ">
<path fill="none" stroke="#63b8ff" d="M142.2,-210.54C108.33,-207.7 52.11,-197.23 25.75,-159.75 14.93,-144.36 19.97,-122.52 26.14,-106.84"/>
<polygon fill="#63b8ff" stroke="#63b8ff" points="29.18,-108.64 30.02,-98.07 22.77,-105.81 29.18,-108.64"/>
</a>
</g>
</g>
<!-- Node21&#45;&gt;Node10 -->
<g id="edge31_Node000021_Node000010" class="edge">
<title>Node21&#45;&gt;Node10</title>
<g id="a_edge31_Node000021_Node000010"><a xlink:title=" ">
<path fill="none" stroke="#63b8ff" d="M169.98,-201.79C170.79,-186.84 174.29,-157.92 188.75,-139 201.59,-122.2 221.56,-109.93 239.43,-101.57"/>
<polygon fill="#63b8ff" stroke="#63b8ff" points="240.78,-104.8 248.54,-97.58 237.97,-98.39 240.78,-104.8"/>
</a>
</g>
</g>
<!-- Node21&#45;&gt;Node17 -->
<g id="edge30_Node000021_Node000017" class="edge">
<title>Node21&#45;&gt;Node17</title>
<g id="a_edge30_Node000021_Node000017"><a xlink:title=" ">
<path fill="none" stroke="#63b8ff" d="M159.31,-201.68C149.58,-192.54 134.87,-178.7 123.18,-167.7"/>
<polygon fill="#63b8ff" stroke="#63b8ff" points="125.74,-165.31 116.06,-161.01 120.94,-170.41 125.74,-165.31"/>
</a>
</g>
</g>
<!-- Node22&#45;&gt;Node21 -->
<g id="edge34_Node000022_Node000021" class="edge">
<title>Node22&#45;&gt;Node21</title>
<g id="a_edge34_Node000022_Node000021"><a xlink:title=" ">
<path fill="none" stroke="#63b8ff" d="M231.86,-264.8C220.57,-255.48 203.39,-241.28 189.95,-230.19"/>
<polygon fill="#63b8ff" stroke="#63b8ff" points="192.47,-227.73 182.53,-224.06 188.01,-233.13 192.47,-227.73"/>
</a>
</g>
</g>
<!-- Node23 -->
<g id="Node000023" class="node">
<title>Node23</title>
<g id="a_Node000023"><a xlink:title=" ">
<polygon fill="#e0e0e0" stroke="#999999" points="267.12,-222.88 220.38,-222.88 220.38,-202.12 267.12,-202.12 267.12,-222.88"/>
<text xml:space="preserve" text-anchor="middle" x="243.75" y="-209.38" font-family="Helvetica,sans-Serif" font-size="10.00">vector</text>
</a>
</g>
</g>
<!-- Node22&#45;&gt;Node23 -->
<g id="edge33_Node000022_Node000023" class="edge">
<title>Node22&#45;&gt;Node23</title>
<g id="a_edge33_Node000022_Node000023"><a xlink:title=" ">
<path fill="none" stroke="#63b8ff" d="M243.75,-264.8C243.75,-256.65 243.75,-244.76 243.75,-234.48"/>
<polygon fill="#63b8ff" stroke="#63b8ff" points="247.25,-234.61 243.75,-224.61 240.25,-234.61 247.25,-234.61"/>
</a>
</g>
</g>
</g>
</svg>
