<?xml version="1.0" encoding="UTF-8" standalone="no"?>
<!DOCTYPE svg PUBLIC "-//W3C//DTD SVG 1.1//EN"
 "http://www.w3.org/Graphics/SVG/1.1/DTD/svg11.dtd">
<!-- Generated by graphviz version 14.1.5 (0)
 -->
<!-- Title: Menu::TextureFile Pages: 1 -->
<svg width="118pt" height="339pt"
 viewBox="0.00 0.00 118.00 339.00" xmlns="http://www.w3.org/2000/svg" xmlns:xlink="http://www.w3.org/1999/xlink">
<g id="graph0" class="graph" transform="scale(1 1) rotate(0) translate(4 334.75)">
<title>Menu::TextureFile</title>
<!-- Node1 -->
<g id="Node000001" class="node">
<title>Node1</title>
<g id="a_Node000001"><a xlink:title="Informations about a File.">
<polygon fill="#999999" stroke="none" points="101.88,-71 8.38,-71 8.38,0 101.88,0 101.88,-71"/>
<text xml:space="preserve" text-anchor="start" x="12.38" y="-57.25" font-family="Helvetica,sans-Serif" font-size="10.00">Menu::TextureFile</text>
<text xml:space="preserve" text-anchor="start" x="23.75" y="-40.5" font-family="Helvetica,sans-Serif" font-size="10.00">+</text>
<text xml:space="preserve" text-anchor="start" x="47.38" y="-40.5" font-family="Helvetica,sans-Serif" font-size="10.00">name</text>
<text xml:space="preserve" text-anchor="start" x="23.75" y="-23.75" font-family="Helvetica,sans-Serif" font-size="10.00">+</text>
<text xml:space="preserve" text-anchor="start" x="47.38" y="-23.75" font-family="Helvetica,sans-Serif" font-size="10.00">path</text>
<text xml:space="preserve" text-anchor="start" x="52.12" y="-7" font-family="Helvetica,sans-Serif" font-size="10.00"> </text>
<polygon fill="#666666" stroke="#666666" points="8.38,-52.25 8.38,-52.25 101.88,-52.25 101.88,-52.25 8.38,-52.25"/>
<polygon fill="#666666" stroke="#666666" points="8.38,-18.75 8.38,-18.75 45.38,-18.75 45.38,-18.75 8.38,-18.75"/>
<polygon fill="#666666" stroke="#666666" points="45.38,-18.75 45.38,-18.75 101.88,-18.75 101.88,-18.75 45.38,-18.75"/>
<polygon fill="none" stroke="#666666" points="8.38,0 8.38,-71 101.88,-71 101.88,0 8.38,0"/>
</a>
</g>
</g>
<!-- Node2 -->
<g id="Node000002" class="node">
<title>Node2</title>
<g id="a_Node000002"><a xlink:href="classTexture.html" target="_top" xlink:title=" ">
<polygon fill="white" stroke="none" points="110.25,-330.75 0,-330.75 0,-125.75 110.25,-125.75 110.25,-330.75"/>
<text xml:space="preserve" text-anchor="start" x="37.12" y="-317" font-family="Helvetica,sans-Serif" font-size="10.00">Texture</text>
<text xml:space="preserve" text-anchor="start" x="6.25" y="-300.25" font-family="Helvetica,sans-Serif" font-size="10.00">&#45;</text>
<text xml:space="preserve" text-anchor="start" x="16.25" y="-300.25" font-family="Helvetica,sans-Serif" font-size="10.00">base_path</text>
<text xml:space="preserve" text-anchor="start" x="6.25" y="-283.5" font-family="Helvetica,sans-Serif" font-size="10.00">&#45;</text>
<text xml:space="preserve" text-anchor="start" x="16.25" y="-283.5" font-family="Helvetica,sans-Serif" font-size="10.00">texture</text>
<text xml:space="preserve" text-anchor="start" x="6.25" y="-266.75" font-family="Helvetica,sans-Serif" font-size="10.00">&#45;</text>
<text xml:space="preserve" text-anchor="start" x="16.25" y="-266.75" font-family="Helvetica,sans-Serif" font-size="10.00">texture_created</text>
<text xml:space="preserve" text-anchor="start" x="6.25" y="-250" font-family="Helvetica,sans-Serif" font-size="10.00">&#45;</text>
<text xml:space="preserve" text-anchor="start" x="16.25" y="-250" font-family="Helvetica,sans-Serif" font-size="10.00">texture_name</text>
<text xml:space="preserve" text-anchor="start" x="4" y="-233.25" font-family="Helvetica,sans-Serif" font-size="10.00">+</text>
<text xml:space="preserve" text-anchor="start" x="16.25" y="-233.25" font-family="Helvetica,sans-Serif" font-size="10.00">CreateTexture()</text>
<text xml:space="preserve" text-anchor="start" x="4" y="-216.5" font-family="Helvetica,sans-Serif" font-size="10.00">+</text>
<text xml:space="preserve" text-anchor="start" x="16.25" y="-216.5" font-family="Helvetica,sans-Serif" font-size="10.00">GetTexture()</text>
<text xml:space="preserve" text-anchor="start" x="4" y="-199.75" font-family="Helvetica,sans-Serif" font-size="10.00">+</text>
<text xml:space="preserve" text-anchor="start" x="16.25" y="-199.75" font-family="Helvetica,sans-Serif" font-size="10.00">GetTextureName()</text>
<text xml:space="preserve" text-anchor="start" x="4" y="-183" font-family="Helvetica,sans-Serif" font-size="10.00">+</text>
<text xml:space="preserve" text-anchor="start" x="16.25" y="-183" font-family="Helvetica,sans-Serif" font-size="10.00">operator=()</text>
<text xml:space="preserve" text-anchor="start" x="4" y="-166.25" font-family="Helvetica,sans-Serif" font-size="10.00">+</text>
<text xml:space="preserve" text-anchor="start" x="16.25" y="-166.25" font-family="Helvetica,sans-Serif" font-size="10.00">Texture()</text>
<text xml:space="preserve" text-anchor="start" x="4" y="-149.5" font-family="Helvetica,sans-Serif" font-size="10.00">+</text>
<text xml:space="preserve" text-anchor="start" x="16.25" y="-149.5" font-family="Helvetica,sans-Serif" font-size="10.00">TextureCreated()</text>
<text xml:space="preserve" text-anchor="start" x="4" y="-132.75" font-family="Helvetica,sans-Serif" font-size="10.00">+</text>
<text xml:space="preserve" text-anchor="start" x="16.25" y="-132.75" font-family="Helvetica,sans-Serif" font-size="10.00">~Texture()</text>
<polygon fill="#666666" stroke="#666666" points="0,-312 0,-312 110.25,-312 110.25,-312 0,-312"/>
<polygon fill="#666666" stroke="#666666" points="0,-245 0,-245 14.25,-245 14.25,-245 0,-245"/>
<polygon fill="#666666" stroke="#666666" points="14.25,-245 14.25,-245 110.25,-245 110.25,-245 14.25,-245"/>
<polygon fill="none" stroke="#666666" points="0,-125.75 0,-330.75 110.25,-330.75 110.25,-125.75 0,-125.75"/>
</a>
</g>
</g>
<!-- Node2&#45;&gt;Node1 -->
<g id="edge1_Node000001_Node000002" class="edge">
<title>Node2&#45;&gt;Node1</title>
<g id="a_edge1_Node000001_Node000002"><a xlink:title=" ">
<path fill="none" stroke="#63b8ff" d="M55.12,-126.01C55.12,-111.19 55.12,-96.55 55.12,-83.55"/>
<polygon fill="none" stroke="#63b8ff" points="55.13,-83.54 51.13,-77.54 55.13,-71.54 59.13,-77.54 55.13,-83.54"/>
</a>
</g>
<text xml:space="preserve" text-anchor="start" x="58.12" y="-95" font-family="Helvetica,sans-Serif" font-size="10.00" fill="grey">+texture</text>
</g>
</g>
</svg>
