<?xml version="1.0" encoding="UTF-8" standalone="no"?>
<!DOCTYPE svg PUBLIC "-//W3C//DTD SVG 1.1//EN"
 "http://www.w3.org/Graphics/SVG/1.1/DTD/svg11.dtd">
<!-- Generated by graphviz version 14.1.5 (0)
 -->
<!-- Title: JSONParser::menu_configuration::RowElementFields Pages: 1 -->
<svg width="174pt" height="125pt"
 viewBox="0.00 0.00 174.00 125.00" xmlns="http://www.w3.org/2000/svg" xmlns:xlink="http://www.w3.org/1999/xlink">
<g id="graph0" class="graph" transform="scale(1 1) rotate(0) translate(4 121.25)">
<title>JSONParser::menu_configuration::RowElementFields</title>
<!-- Node1 -->
<g id="Node000001" class="node">
<title>Node1</title>
<g id="a_Node000001"><a xlink:title="Struct to save the Element fields in the Button type menu configuration.">
<polygon fill="#999999" stroke="none" points="166.25,-117.25 0,-117.25 0,0 166.25,0 166.25,-117.25"/>
<text xml:space="preserve" text-anchor="start" x="4" y="-103.5" font-family="Helvetica,sans-Serif" font-size="10.00">JSONParser::menu_configuration</text>
<text xml:space="preserve" text-anchor="start" x="35.5" y="-90.75" font-family="Helvetica,sans-Serif" font-size="10.00">::RowElementFields</text>
<text xml:space="preserve" text-anchor="start" x="33" y="-74" font-family="Helvetica,sans-Serif" font-size="10.00">+</text>
<text xml:space="preserve" text-anchor="start" x="74.25" y="-74" font-family="Helvetica,sans-Serif" font-size="10.00">action</text>
<text xml:space="preserve" text-anchor="start" x="33" y="-57.25" font-family="Helvetica,sans-Serif" font-size="10.00">+</text>
<text xml:space="preserve" text-anchor="start" x="74.25" y="-57.25" font-family="Helvetica,sans-Serif" font-size="10.00">id</text>
<text xml:space="preserve" text-anchor="start" x="33" y="-40.5" font-family="Helvetica,sans-Serif" font-size="10.00">+</text>
<text xml:space="preserve" text-anchor="start" x="74.25" y="-40.5" font-family="Helvetica,sans-Serif" font-size="10.00">text</text>
<text xml:space="preserve" text-anchor="start" x="33" y="-23.75" font-family="Helvetica,sans-Serif" font-size="10.00">+</text>
<text xml:space="preserve" text-anchor="start" x="74.25" y="-23.75" font-family="Helvetica,sans-Serif" font-size="10.00">type</text>
<text xml:space="preserve" text-anchor="start" x="80.12" y="-7" font-family="Helvetica,sans-Serif" font-size="10.00"> </text>
<polygon fill="#666666" stroke="#666666" points="0,-85.75 0,-85.75 166.25,-85.75 166.25,-85.75 0,-85.75"/>
<polygon fill="#666666" stroke="#666666" points="0,-18.75 0,-18.75 72.25,-18.75 72.25,-18.75 0,-18.75"/>
<polygon fill="#666666" stroke="#666666" points="72.25,-18.75 72.25,-18.75 166.25,-18.75 166.25,-18.75 72.25,-18.75"/>
<polygon fill="none" stroke="#666666" points="0,0 0,-117.25 166.25,-117.25 166.25,0 0,0"/>
</a>
</g>
</g>
</g>
</svg>
